<svg width="201" height="60" viewBox="0 0 201 60" fill="none" xmlns="http://www.w3.org/2000/svg">
<path d="M36.8252 31.2193V10.1718C45.4259 13.7079 51.4817 22.1691 51.4817 32.0448C51.4817 45.1006 40.8979 55.6844 27.8422 55.6844C14.7864 55.6844 4.20259 45.1006 4.20259 32.0448C4.20259 18.9891 14.7864 8.40527 27.8422 8.40527C27.918 8.40527 27.9939 8.40563 28.0696 8.40634V30.0786C28.0696 31.7196 27.7095 32.9404 26.9893 33.7409C26.3071 34.5414 25.1889 34.9416 23.6349 34.9416C22.9906 34.9416 22.3841 34.9016 21.8156 34.8215C21.247 34.7015 20.6027 34.5414 19.8825 34.3413C19.6551 34.6614 19.4277 35.1017 19.2002 35.6621C18.9728 36.2224 18.8591 36.8828 18.8591 37.6433C18.8591 39.4044 19.5224 40.6451 20.849 41.3656C22.1756 42.086 23.8623 42.4462 25.9091 42.4462C28.2212 42.4462 30.1921 42.006 31.822 41.1254C33.4518 40.2449 34.6837 38.9641 35.5175 37.2831C36.3893 35.602 36.8252 33.5808 36.8252 31.2193Z" fill="#0091FB"/>
<path d="M36.7727 4.20259C36.7727 6.52362 34.8911 8.40518 32.5701 8.40518C30.249 8.40518 28.3675 6.52362 28.3675 4.20259C28.3675 1.88156 30.249 0 32.5701 0C34.8911 0 36.7727 1.88156 36.7727 4.20259Z" fill="#0091FB"/>
<path fill-rule="evenodd" clip-rule="evenodd" d="M27.8422 58.7733C42.6039 58.7733 54.5706 46.8065 54.5706 32.0448C54.5706 17.2831 42.6039 5.31632 27.8422 5.31632C13.0804 5.31632 1.11369 17.2831 1.11369 32.0448C1.11369 46.8065 13.0804 58.7733 27.8422 58.7733ZM27.8422 59.887C43.219 59.887 55.6843 47.4216 55.6843 32.0448C55.6843 16.668 43.219 4.20264 27.8422 4.20264C12.4654 4.20264 0 16.668 0 32.0448C0 47.4216 12.4654 59.887 27.8422 59.887Z" fill="#0091FB"/>
<path d="M75.1943 33.8635C75.1943 35.0535 75.0493 36.1035 74.7593 37.0135C74.4693 37.9235 74.0493 38.6885 73.4993 39.3085C72.9493 39.9285 72.2843 40.3985 71.5043 40.7185C70.7243 41.0285 69.8443 41.1835 68.8643 41.1835C68.4143 41.1835 67.9593 41.1485 67.4993 41.0785C67.0393 41.0085 66.5643 40.8985 66.0743 40.7485C66.0843 40.6085 66.0943 40.4685 66.1043 40.3285C66.1243 40.1885 66.1443 40.0485 66.1643 39.9085C66.1843 39.8185 66.2193 39.7385 66.2693 39.6685C66.3293 39.5985 66.4293 39.5635 66.5693 39.5635C66.6593 39.5635 66.7643 39.5835 66.8843 39.6235C67.0143 39.6535 67.1643 39.6885 67.3343 39.7285C67.5043 39.7685 67.7043 39.8085 67.9343 39.8485C68.1643 39.8785 68.4293 39.8935 68.7293 39.8935C69.4893 39.8935 70.1743 39.7735 70.7843 39.5335C71.3943 39.2935 71.9143 38.9285 72.3443 38.4385C72.7743 37.9385 73.0993 37.3135 73.3193 36.5635C73.5493 35.8035 73.6643 34.9135 73.6643 33.8935V19.7185H75.1943V33.8635ZM91.736 26.0185V40.9435H90.941C90.691 40.9435 90.546 40.8135 90.506 40.5535L90.371 38.3335C89.681 39.1935 88.881 39.8835 87.971 40.4035C87.071 40.9235 86.066 41.1835 84.956 41.1835C84.126 41.1835 83.401 41.0535 82.781 40.7935C82.161 40.5335 81.646 40.1585 81.236 39.6685C80.826 39.1785 80.516 38.5885 80.306 37.8985C80.096 37.2085 79.991 36.4285 79.991 35.5585V26.0185H81.431V35.5585C81.431 36.9585 81.751 38.0585 82.391 38.8585C83.031 39.6485 84.006 40.0435 85.316 40.0435C86.286 40.0435 87.191 39.7985 88.031 39.3085C88.881 38.8085 89.636 38.1185 90.296 37.2385V26.0185H91.736ZM98.0902 37.6885C98.6702 38.5485 99.3052 39.1535 99.9952 39.5035C100.695 39.8435 101.48 40.0135 102.35 40.0135C103.24 40.0135 104.015 39.8535 104.675 39.5335C105.345 39.2135 105.9 38.7585 106.34 38.1685C106.79 37.5685 107.125 36.8435 107.345 35.9935C107.565 35.1435 107.675 34.1885 107.675 33.1285C107.675 31.0685 107.265 29.5185 106.445 28.4785C105.625 27.4385 104.475 26.9185 102.995 26.9185C101.935 26.9185 101.01 27.1735 100.22 27.6835C99.4302 28.1935 98.7202 28.9035 98.0902 29.8135V37.6885ZM98.0902 28.6135C98.7402 27.7335 99.5002 27.0435 100.37 26.5435C101.24 26.0335 102.25 25.7785 103.4 25.7785C104.3 25.7785 105.105 25.9435 105.815 26.2735C106.525 26.6035 107.125 27.0785 107.615 27.6985C108.115 28.3185 108.495 29.0835 108.755 29.9935C109.015 30.8935 109.145 31.9185 109.145 33.0685C109.145 34.2785 109 35.3835 108.71 36.3835C108.42 37.3735 107.995 38.2235 107.435 38.9335C106.885 39.6335 106.21 40.1785 105.41 40.5685C104.61 40.9485 103.695 41.1385 102.665 41.1385C101.605 41.1385 100.7 40.9385 99.9502 40.5385C99.2102 40.1285 98.5702 39.5235 98.0302 38.7235L97.9252 40.5685C97.8952 40.8185 97.7602 40.9435 97.5202 40.9435H96.6502V19.1185H98.0902V28.6135ZM114.614 37.6885C115.194 38.5485 115.829 39.1535 116.519 39.5035C117.219 39.8435 118.004 40.0135 118.874 40.0135C119.764 40.0135 120.539 39.8535 121.199 39.5335C121.869 39.2135 122.424 38.7585 122.864 38.1685C123.314 37.5685 123.649 36.8435 123.869 35.9935C124.089 35.1435 124.199 34.1885 124.199 33.1285C124.199 31.0685 123.789 29.5185 122.969 28.4785C122.149 27.4385 120.999 26.9185 119.519 26.9185C118.459 26.9185 117.534 27.1735 116.744 27.6835C115.954 28.1935 115.244 28.9035 114.614 29.8135V37.6885ZM114.614 28.6135C115.264 27.7335 116.024 27.0435 116.894 26.5435C117.764 26.0335 118.774 25.7785 119.924 25.7785C120.824 25.7785 121.629 25.9435 122.339 26.2735C123.049 26.6035 123.649 27.0785 124.139 27.6985C124.639 28.3185 125.019 29.0835 125.279 29.9935C125.539 30.8935 125.669 31.9185 125.669 33.0685C125.669 34.2785 125.524 35.3835 125.234 36.3835C124.944 37.3735 124.519 38.2235 123.959 38.9335C123.409 39.6335 122.734 40.1785 121.934 40.5685C121.134 40.9485 120.219 41.1385 119.189 41.1385C118.129 41.1385 117.224 40.9385 116.474 40.5385C115.734 40.1285 115.094 39.5235 114.554 38.7235L114.449 40.5685C114.419 40.8185 114.284 40.9435 114.044 40.9435H113.174V19.1185H114.614V28.6135ZM141.405 26.0185L132.825 45.7435C132.765 45.8835 132.685 45.9985 132.585 46.0885C132.495 46.1785 132.36 46.2235 132.18 46.2235H131.16L133.785 40.3885L127.47 26.0185H128.655C128.805 26.0185 128.925 26.0585 129.015 26.1385C129.105 26.2085 129.165 26.2885 129.195 26.3785L134.22 37.9885C134.28 38.1385 134.33 38.2935 134.37 38.4535C134.42 38.6035 134.465 38.7585 134.505 38.9185C134.555 38.7585 134.605 38.6035 134.655 38.4535C134.715 38.2935 134.775 38.1385 134.835 37.9885L139.8 26.3785C139.85 26.2685 139.92 26.1835 140.01 26.1235C140.1 26.0535 140.2 26.0185 140.31 26.0185H141.405ZM148.904 41.1835C147.564 41.1835 146.534 40.8085 145.814 40.0585C145.104 39.2985 144.749 38.2535 144.749 36.9235V28.3285H143.174C142.974 28.3285 142.804 28.2635 142.664 28.1335C142.524 28.0035 142.454 27.8085 142.454 27.5485V26.0785L144.929 25.6735L145.709 21.4735C145.759 21.2735 145.854 21.1185 145.994 21.0085C146.134 20.8985 146.314 20.8435 146.534 20.8435H148.454V25.6885H152.564V28.3285H148.454V36.6685C148.454 37.1485 148.569 37.5235 148.799 37.7935C149.039 38.0635 149.364 38.1985 149.774 38.1985C150.004 38.1985 150.194 38.1735 150.344 38.1235C150.504 38.0635 150.639 38.0035 150.749 37.9435C150.869 37.8835 150.974 37.8285 151.064 37.7785C151.154 37.7185 151.244 37.6885 151.334 37.6885C151.444 37.6885 151.534 37.7185 151.604 37.7785C151.674 37.8285 151.749 37.9085 151.829 38.0185L152.939 39.8185C152.399 40.2685 151.779 40.6085 151.079 40.8385C150.379 41.0685 149.654 41.1835 148.904 41.1835ZM164.734 31.4785C164.734 30.9985 164.664 30.5485 164.524 30.1285C164.394 29.6985 164.194 29.3235 163.924 29.0035C163.654 28.6835 163.309 28.4335 162.889 28.2535C162.479 28.0635 161.999 27.9685 161.449 27.9685C160.379 27.9685 159.534 28.2735 158.914 28.8835C158.304 29.4935 157.914 30.3585 157.744 31.4785H164.734ZM157.669 33.7135C157.729 34.5035 157.869 35.1885 158.089 35.7685C158.309 36.3385 158.599 36.8135 158.959 37.1935C159.319 37.5635 159.744 37.8435 160.234 38.0335C160.734 38.2135 161.284 38.3035 161.884 38.3035C162.484 38.3035 162.999 38.2335 163.429 38.0935C163.869 37.9535 164.249 37.7985 164.569 37.6285C164.899 37.4585 165.184 37.3035 165.424 37.1635C165.674 37.0235 165.914 36.9535 166.144 36.9535C166.454 36.9535 166.684 37.0685 166.834 37.2985L167.899 38.6485C167.489 39.1285 167.029 39.5335 166.519 39.8635C166.009 40.1835 165.474 40.4435 164.914 40.6435C164.364 40.8335 163.799 40.9685 163.219 41.0485C162.649 41.1285 162.094 41.1685 161.554 41.1685C160.484 41.1685 159.489 40.9935 158.569 40.6435C157.649 40.2835 156.849 39.7585 156.169 39.0685C155.489 38.3685 154.954 37.5085 154.564 36.4885C154.174 35.4585 153.979 34.2685 153.979 32.9185C153.979 31.8685 154.149 30.8835 154.489 29.9635C154.829 29.0335 155.314 28.2285 155.944 27.5485C156.584 26.8585 157.359 26.3135 158.269 25.9135C159.189 25.5135 160.224 25.3135 161.374 25.3135C162.344 25.3135 163.239 25.4685 164.059 25.7785C164.879 26.0885 165.584 26.5435 166.174 27.1435C166.764 27.7335 167.224 28.4635 167.554 29.3335C167.894 30.1935 168.064 31.1785 168.064 32.2885C168.064 32.8485 168.004 33.2285 167.884 33.4285C167.764 33.6185 167.534 33.7135 167.194 33.7135H157.669ZM181.869 28.8085C181.759 28.9485 181.649 29.0585 181.539 29.1385C181.439 29.2185 181.289 29.2585 181.089 29.2585C180.899 29.2585 180.714 29.2035 180.534 29.0935C180.354 28.9735 180.139 28.8435 179.889 28.7035C179.639 28.5535 179.339 28.4235 178.989 28.3135C178.649 28.1935 178.224 28.1335 177.714 28.1335C177.064 28.1335 176.494 28.2535 176.004 28.4935C175.514 28.7235 175.104 29.0585 174.774 29.4985C174.454 29.9385 174.214 30.4735 174.054 31.1035C173.894 31.7235 173.814 32.4285 173.814 33.2185C173.814 34.0385 173.899 34.7685 174.069 35.4085C174.249 36.0485 174.504 36.5885 174.834 37.0285C175.164 37.4585 175.564 37.7885 176.034 38.0185C176.504 38.2385 177.034 38.3485 177.624 38.3485C178.214 38.3485 178.689 38.2785 179.049 38.1385C179.419 37.9885 179.729 37.8285 179.979 37.6585C180.229 37.4785 180.444 37.3185 180.624 37.1785C180.814 37.0285 181.024 36.9535 181.254 36.9535C181.554 36.9535 181.779 37.0685 181.929 37.2985L182.994 38.6485C182.584 39.1285 182.139 39.5335 181.659 39.8635C181.179 40.1835 180.679 40.4435 180.159 40.6435C179.649 40.8335 179.119 40.9685 178.569 41.0485C178.029 41.1285 177.489 41.1685 176.949 41.1685C175.999 41.1685 175.104 40.9935 174.264 40.6435C173.424 40.2835 172.689 39.7635 172.059 39.0835C171.429 38.4035 170.929 37.5735 170.559 36.5935C170.199 35.6035 170.019 34.4785 170.019 33.2185C170.019 32.0885 170.179 31.0435 170.499 30.0835C170.829 29.1135 171.309 28.2785 171.939 27.5785C172.569 26.8685 173.349 26.3135 174.279 25.9135C175.209 25.5135 176.279 25.3135 177.489 25.3135C178.639 25.3135 179.644 25.4985 180.504 25.8685C181.374 26.2385 182.154 26.7685 182.844 27.4585L181.869 28.8085ZM189.022 27.2035C189.622 26.6435 190.282 26.1885 191.002 25.8385C191.722 25.4885 192.567 25.3135 193.537 25.3135C194.377 25.3135 195.122 25.4585 195.772 25.7485C196.422 26.0285 196.962 26.4285 197.392 26.9485C197.832 27.4585 198.162 28.0735 198.382 28.7935C198.612 29.5035 198.727 30.2885 198.727 31.1485V40.9435H195.022V31.1485C195.022 30.2085 194.807 29.4835 194.377 28.9735C193.947 28.4535 193.292 28.1935 192.412 28.1935C191.772 28.1935 191.172 28.3385 190.612 28.6285C190.052 28.9185 189.522 29.3135 189.022 29.8135V40.9435H185.317V18.6535H189.022V27.2035Z" fill="#0091FB"/>
</svg>
